<svg width="310.3466064453125px" height="80px" xmlns="http://www.w3.org/2000/svg" viewBox="94.82669677734376 35 310.3466064453125 80" style="background: rgba(0, 0, 0, 0);" preserveAspectRatio="xMidYMid"><defs><filter id="editing-extrude-glow"><feFlood flood-color="#333333" result="flood-1"></feFlood><feMorphology operator="erode" radius="1" in="SourceAlpha" result="erode"></feMorphology><feComposite operator="in" in="flood-1" in2="erode" result="comp1"></feComposite><feConvolveMatrix order="1,1" divisor="1" in="comp1" result="convolve" kernelMatrix="1"></feConvolveMatrix><feOffset dx="-1" dy="0" in="convolve" result="extrude"></feOffset><feComposite operator="in" in="flood-1" in2="extrude" result="comp-extrude"></feComposite><feFlood flood-color="#c7adad" result="flood-2"></feFlood><feComposite operator="in" in="flood-2" in2="SourceAlpha" result="comp2"></feComposite><feMorphology operator="dilate" radius="1" in="comp2" result="dilate"></feMorphology><feOffset dx="-1.5" dy="0" in="dilate" result="offset"></feOffset><feGaussianBlur in="offset" stdDeviation="5.8" result="blur"></feGaussianBlur><feComponentTransfer in="blur" result="shadow"><feFuncA type="linear" slope="0.8" intercept="-0.2"></feFuncA></feComponentTransfer><feMerge><feMergeNode in="shadow"></feMergeNode><feMergeNode in="comp-extrude"></feMergeNode><feMergeNode in="SourceGraphic"></feMergeNode></feMerge></filter></defs><g filter="url(#editing-extrude-glow)"><g transform="translate(145.33458590507507, 89.9850025177002)"><path d="M20.02-9.45L20.02-9.45L20.02-9.45Q18.27-9.45 16.77-9.73L16.77-9.73L16.77-9.73Q17.26-8.19 18.83-2.77L18.83-2.77L18.83-2.77Q19.32-1.19 20.37 0.42L20.37 0.42L20.37 0.42Q21.81 2.49 23.03 2.49L23.03 2.49L23.03 2.49Q24.50 2.49 25.48-0.49L25.48-0.49L25.48-0.49Q25.66-1.19 25.85-1.19L25.85-1.19L25.85-1.19Q26.04-1.19 26.13-0.79L26.13-0.79L26.13-0.79Q26.22-0.39 26.22-0.25L26.22-0.25L26.22-0.25Q26.22 0.63 25.24 2.00L25.24 2.00L25.24 2.00Q23.94 3.92 22.40 3.92L22.40 3.92L22.40 3.92Q20.86 3.92 19.57 2.38L19.57 2.38L19.57 2.38Q18.27 0.84 17.03-3.24L17.03-3.24L17.03-3.24Q15.79-7.32 15.79-8.44L15.79-8.44L15.79-8.44Q15.79-8.61 15.82-8.72L15.82-8.72L15.82-8.72Q11.62-3.15 9.80-1.37L9.80-1.37L9.80-1.37Q5.74 2.59 1.51 2.59L1.51 2.59L1.51 2.59Q-1.47 2.59-1.47 0.35L-1.47 0.35L-1.47 0.35Q-1.47-0.77-0.77-2.12L-0.77-2.12L-0.77-2.12Q-0.07-3.47 0.95-4.48L0.95-4.48L0.95-4.48Q1.96-5.50 2.73-5.50L2.73-5.50L2.73-5.50Q2.87-5.50 2.87-5.43L2.87-5.43L2.87-5.43Q2.87-5.25 2.00-4.55L2.00-4.55L2.00-4.55Q1.12-3.85 0.32-2.57L0.32-2.57L0.32-2.57Q-0.49-1.30-0.49-0.25L-0.49-0.25L-0.49-0.25Q-0.49 1.61 2.00 1.61L2.00 1.61L2.00 1.61Q6.65 1.61 14.81-9.31L14.81-9.31L14.81-9.31Q15.26-9.91 15.58-10.15L15.58-10.15L15.02-10.36L15.02-10.36Q14.56-10.19 14.28-10.19L14.28-10.19L14.28-10.19Q13.55-10.19 13.55-10.78L13.55-10.78L13.55-10.78Q13.55-11.59 14.63-11.83L14.63-11.83L14.63-11.83Q14.77-11.87 14.88-11.87L14.88-11.87L14.88-11.87Q15.51-11.87 16.35-11.24L16.35-11.24L16.35-11.24Q19.43-14.67 19.50-14.74L19.50-14.74L19.50-14.74Q22.05-17.36 22.94-17.36L22.94-17.36L22.94-17.36Q23.84-17.36 23.84-16.59L23.84-16.59L23.84-16.59Q23.84-16.24 23.68-15.93L23.68-15.93L23.68-15.93Q23.52-15.61 23.31-15.61L23.31-15.61L23.31-15.61Q23.10-15.54 23.10-15.82L23.10-15.82L23.10-15.82Q23.10-15.96 23.31-16.24L23.31-16.24L23.31-16.24Q23.35-16.73 23.00-16.73L23.00-16.73L23.00-16.73Q21.88-16.73 17.57-10.78L17.57-10.78L17.57-10.78Q18.62-10.71 19.32-10.71L19.32-10.71L19.32-10.71Q27.44-10.71 29.47-14.91L29.47-14.91L29.47-14.91Q29.89-15.82 29.89-16.59L29.89-16.59L29.89-16.59Q29.89-18.13 28.49-19.25L28.49-19.25L28.49-19.25Q26.25-21.07 21.21-21.07L21.21-21.07L21.21-21.07Q16.17-21.07 10.92-18.52L10.92-18.52L10.92-18.52Q4.55-15.40 4.55-11.20L4.55-11.20L4.55-11.20Q4.55-9.84 6.27-9.84L6.27-9.84L6.27-9.84Q7.98-9.84 9.91-11.10L9.91-11.10L9.91-11.10Q11.83-12.36 12.50-13.58L12.50-13.58L12.50-13.58Q12.74-14.04 12.97-14.04L12.97-14.04L12.97-14.04Q13.20-14.04 13.09-13.76L13.09-13.76L13.09-13.76Q12.43-11.80 10.13-10.41L10.13-10.41L10.13-10.41Q7.84-9.03 5.36-9.03L5.36-9.03L5.36-9.03Q2.87-9.03 2.87-10.61L2.87-10.61L2.87-10.61Q2.87-10.71 2.87-10.85L2.87-10.85L2.87-10.85Q3.40-15.44 8.49-18.64L8.49-18.64L8.49-18.64Q13.58-21.84 20.76-21.84L20.76-21.84L20.76-21.84Q27.44-21.84 30.24-19.53L30.24-19.53L30.24-19.53Q31.92-18.13 31.92-16.24L31.92-16.24L31.92-16.24Q31.92-15.44 31.54-14.49L31.54-14.49L31.54-14.49Q30.45-11.94 27.09-10.69L27.09-10.69L27.09-10.69Q23.73-9.45 20.02-9.45ZM28.11 0.46L28.11 0.46L28.11 0.46Q27.72 0.46 27.41 0.35L27.41 0.35L27.41 0.35Q25.17-0.28 25.17-2.17L25.17-2.17L25.17-2.17Q25.17-4.62 28.25-7.84L28.25-7.84L28.25-7.84Q31.33-11.06 33.78-11.06L33.78-11.06L33.78-11.06Q34.58-11.06 35.09-10.62L35.09-10.62L35.09-10.62Q35.60-10.19 35.60-9.56L35.60-9.56L35.60-9.56Q35.60-7.60 32.64-5.81L32.64-5.81L32.64-5.81Q29.68-4.03 27.83-4.03L27.83-4.03L27.83-4.03Q27.55-4.03 27.34-4.10L27.34-4.10L27.34-4.10Q26.81-3.15 26.81-2.10L26.81-2.10L26.81-2.10Q26.81-0.28 28.54-0.28L28.54-0.28L28.54-0.28Q30.28-0.28 33.04-2.63L33.04-2.63L33.04-2.63Q35.18-4.34 36.68-6.27L36.68-6.27L36.68-6.27Q37.00-6.69 37.22-6.69L37.22-6.69L37.22-6.69Q37.45-6.69 37.45-6.48L37.45-6.48L37.45-6.48Q37.45-6.27 37.17-5.88L37.17-5.88L37.17-5.88Q35.28-3.40 32.62-1.47L32.62-1.47L32.62-1.47Q29.96 0.46 28.11 0.46ZM34.72-9.63L34.72-9.63L34.72-9.63Q34.72-10.05 33.83-10.05L33.83-10.05L33.83-10.05Q32.94-10.05 31.29-8.68L31.29-8.68L31.29-8.68Q29.09-6.86 27.86-4.87L27.86-4.87L27.86-4.87Q28.07-4.80 28.32-4.80L28.32-4.80L28.32-4.80Q29.65-4.80 31.87-6.21L31.87-6.21L31.87-6.21Q34.09-7.63 34.65-9.31L34.65-9.31L34.65-9.31Q34.72-9.49 34.72-9.63ZM46.94-10.47L46.94-10.47L47.43-10.57L47.43-10.57Q47.81-10.57 48.16-10.26L48.16-10.26L48.16-10.26Q48.51-9.94 48.51-9.77L48.51-9.77L48.51-9.77Q48.51-9.59 46.34-6.39L46.34-6.39L46.34-6.39Q44.17-3.19 44.17-1.93L44.17-1.93L44.17-1.93Q44.17-1.82 44.21-1.72L44.21-1.72L44.21-1.72Q44.38-0.91 44.98-0.91L44.98-0.91L44.98-0.91Q46.80-0.91 51.63-6.93L51.63-6.93L51.63-6.93Q51.73-7.07 51.87-7.07L51.87-7.07L51.87-7.07Q52.01-7.07 52.01-6.81L52.01-6.81L52.01-6.81Q52.01-6.55 51.70-6.13L51.70-6.13L51.70-6.13Q47.22-0.14 44.87-0.14L44.87-0.14L44.87-0.14Q44.56-0.14 44.28-0.25L44.28-0.25L44.28-0.25Q42.74-0.84 42.74-2.56L42.74-2.56L42.74-2.56Q42.74-3.15 42.88-3.75L42.88-3.75L40.71-1.65L40.71-1.65Q38.64 0.18 37.71 0.18L37.71 0.18L37.71 0.18Q36.79 0.18 35.95-0.42L35.95-0.42L35.95-0.42Q35.00-1.12 35.00-2.28L35.00-2.28L35.00-2.28Q35.00-4.83 38.57-8.38L38.57-8.38L38.57-8.38Q42.14-11.94 45.12-11.94L45.12-11.94L45.12-11.94Q46.27-11.94 46.66-11.13L46.66-11.13L46.66-11.13Q46.76-10.85 46.83-10.66L46.83-10.66L46.83-10.66Q46.90-10.47 46.94-10.47ZM36.47-1.86L36.47-1.86L36.47-1.86Q36.47-0.60 37.35-0.60L37.35-0.60L37.35-0.60Q39.38-0.60 42.88-5.04L42.88-5.04L46.59-10.15L46.59-10.15Q46.31-10.64 45.68-10.64L45.68-10.64L45.68-10.64Q43.54-10.64 40.01-7.33L40.01-7.33L40.01-7.33Q36.47-4.03 36.47-1.86ZM52.40 0.46L52.40 0.46L52.40 0.46Q52.01 0.46 51.70 0.35L51.70 0.35L51.70 0.35Q49.46-0.28 49.46-2.17L49.46-2.17L49.46-2.17Q49.46-4.62 52.54-7.84L52.54-7.84L52.54-7.84Q55.62-11.06 58.07-11.06L58.07-11.06L58.07-11.06Q58.87-11.06 59.38-10.62L59.38-10.62L59.38-10.62Q59.89-10.19 59.89-9.43L59.89-9.43L59.89-9.43Q59.89-8.68 59.43-7.86L59.43-7.86L59.43-7.86Q58.98-7.04 58.07-7.04L58.07-7.04L58.07-7.04Q57.16-7.04 57.16-7.60L57.16-7.60L57.16-7.60Q57.16-7.98 57.63-8.77L57.63-8.77L57.63-8.77Q58.10-9.56 58.10-9.61L58.10-9.61L58.10-9.61Q58.10-9.66 58.00-9.66L58.00-9.66L58.00-9.66Q57.02-9.56 55.32-8.26L55.32-8.26L55.32-8.26Q53.62-6.97 52.99-6.09L52.99-6.09L51.63-4.10L51.63-4.10Q51.28-3.54 51.12-2.77L51.12-2.77L51.12-2.77Q50.96-2.00 50.96-1.61L50.96-1.61L50.96-1.61Q50.96-1.23 51.40-0.74L51.40-0.74L51.40-0.74Q51.84-0.25 52.64-0.25L52.64-0.25L52.64-0.25Q54.39-0.25 56.98-2.29L56.98-2.29L56.98-2.29Q59.57-4.34 60.97-6.20L60.97-6.20L60.97-6.20Q61.15-6.41 61.39-6.41L61.39-6.41L61.39-6.41Q61.64-6.41 61.64-6.27L61.64-6.27L61.64-6.27Q61.64-6.13 61.46-5.92L61.46-5.92L61.46-5.92Q59.54-3.36 56.86-1.45L56.86-1.45L56.86-1.45Q54.18 0.46 52.40 0.46ZM68.78-11.27L68.78-11.27L73.82-11.34L73.82-11.34Q73.92-11.27 73.92-11.24L73.92-11.24L73.92-11.24Q73.92-10.92 69.56-10.36L69.56-10.36L69.56-10.36Q65.21-9.80 64.86-9.70L64.86-9.70L64.86-9.70Q64.19-9.10 62.41-6.14L62.41-6.14L62.41-6.14Q60.62-3.19 60.62-1.82L60.62-1.82L60.62-1.82Q60.62-0.53 62.41-0.53L62.41-0.53L62.41-0.53Q63.25-0.53 64.61-1.05L64.61-1.05L64.61-1.05Q65.98-1.58 66.71-2.03L66.71-2.03L66.71-2.03Q68.67-3.26 70.91-5.64L70.91-5.64L70.91-5.64Q71.40-6.13 71.58-6.13L71.58-6.13L71.58-6.13Q71.68-6.13 71.68-5.92L71.68-5.92L71.68-5.92Q71.68-5.71 71.16-5.08L71.16-5.08L71.16-5.08Q69.34-2.84 67.06-1.47L67.06-1.47L67.06-1.47Q64.33 0.21 61.85 0.21L61.85 0.21L61.85 0.21Q60.76 0.21 60.08-0.26L60.08-0.26L60.08-0.26Q59.40-0.74 59.40-2.17L59.40-2.17L59.40-2.17Q59.40-3.61 60.66-6.11L60.66-6.11L60.66-6.11Q61.92-8.61 62.58-9.84L62.58-9.84L62.58-9.84Q62.09-9.73 61.74-9.73L61.74-9.73L61.74-9.73Q60.73-9.73 60.73-10.54L60.73-10.54L60.73-10.54Q60.73-11.13 61.57-11.38L61.57-11.38L61.57-11.38Q61.67-11.38 61.88-11.41L61.88-11.41L63.91-11.41L63.91-11.41Q64.54-12.22 65.35-13.27L65.35-13.27L65.35-13.27Q66.33-14.53 66.68-14.53L66.68-14.53L66.68-14.53Q67.03-14.53 67.55-14.25L67.55-14.25L67.55-14.25Q68.08-13.97 68.08-13.58L68.08-13.58L68.08-13.58Q68.08-13.20 66.40-11.31L66.40-11.31L66.40-11.31Q67.31-11.27 68.78-11.27ZM91.77-1.44L91.77-1.44L91.77-1.44Q90.93-0.14 90.93 0.25L90.93 0.25L90.93 0.25Q90.93 0.63 91.25 0.81L91.25 0.81L91.25 0.81Q91.25 0.84 90.62 1.33L90.62 1.33L90.62 1.33Q90.06 1.61 89.36 1.61L89.36 1.61L89.36 1.61Q88.66 1.61 88.34 1.45L88.34 1.45L88.34 1.45Q88.03 1.30 88.13 0.95L88.13 0.95L88.13 0.95Q88.62-0.63 91.81-5.37L91.81-5.37L91.81-5.37Q94.99-10.12 96.08-12.08L96.08-12.08L96.08-12.08Q98.42-16.31 98.42-18.83L98.42-18.83L98.42-18.83Q98.42-19.88 98.07-20.62L98.07-20.62L98.07-20.62Q97.37-22.05 94.75-22.05L94.75-22.05L94.75-22.05Q90.65-22.05 86.28-18.52L86.28-18.52L86.28-18.52Q82.78-15.68 80.92-12.51L80.92-12.51L80.92-12.51Q79.07-9.35 79.07-6.86L79.07-6.86L79.07-6.86Q79.07-3.29 82.22-3.22L82.22-3.22L82.22-3.22Q82.36-3.22 82.50-3.22L82.50-3.22L82.50-3.22Q86.52-3.22 88.73-6.13L88.73-6.13L88.73-6.13Q89.57-7.28 89.57-8.09L89.57-8.09L89.57-8.09Q89.57-8.89 89.22-9.10L89.22-9.10L89.22-9.10Q89.18-9.14 89.18-9.24L89.18-9.24L89.18-9.24Q89.18-9.35 89.39-9.35L89.39-9.35L89.39-9.35Q90.30-9.35 90.30-8.16L90.30-8.16L90.30-8.16Q90.30-7.42 89.58-6.16L89.58-6.16L89.58-6.16Q88.87-4.90 87.05-3.78L87.05-3.78L87.05-3.78Q85.23-2.66 82.81-2.66L82.81-2.66L82.81-2.66Q80.40-2.66 78.96-4.17L78.96-4.17L78.96-4.17Q77.53-5.67 77.53-8.12L77.53-8.12L77.53-8.12Q77.53-13.65 84.74-19.43L84.74-19.43L84.74-19.43Q86.59-20.90 89.62-21.84L89.62-21.84L89.62-21.84Q92.65-22.79 95.41-22.79L95.41-22.79L95.41-22.79Q98.18-22.79 99.17-21.82L99.17-21.82L99.17-21.82Q100.17-20.86 100.17-19.25L100.17-19.25L100.17-19.25Q100.17-16.80 98.18-12.64L98.18-12.64L98.18-12.64Q97.55-11.34 95.34-7.91L95.34-7.91L98.04-11.34L98.04-11.34Q100.00-13.90 104.83-18.62L104.83-18.62L104.83-18.62Q105.88-19.64 107.15-20.32L107.15-20.32L107.15-20.32Q108.43-21.00 109.34-21.00L109.34-21.00L109.34-21.00Q110.60-21.00 110.60-19.67L110.60-19.67L110.60-19.67Q110.60-18.52 109.50-16.19L109.50-16.19L109.50-16.19Q108.40-13.86 107.28-11.78L107.28-11.78L107.28-11.78Q106.16-9.70 105.91-9.05L105.91-9.05L105.91-9.05Q105.67-8.40 105.56-8.02L105.56-8.02L105.56-8.02Q105.46-7.63 105.42-7.60L105.42-7.60L105.42-7.60Q105.53-7.77 107.73-10.27L107.73-10.27L107.73-10.27Q109.94-12.78 114.24-16.52L114.24-16.52L119.84-21.14L119.84-21.14Q120.51-21.70 121.03-21.70L121.03-21.70L121.03-21.70Q121.56-21.70 121.89-20.83L121.89-20.83L121.89-20.83Q122.22-19.95 122.22-19.41L122.22-19.41L122.22-19.41Q122.22-18.87 120.54-17.15L120.54-17.15L120.54-17.15Q116.17-12.67 113.12-7.35L113.12-7.35L113.12-7.35Q110.08-2.03 110.08 0.25L110.08 0.25L110.08 0.25Q110.08 0.84 110.29 1.07L110.29 1.07L110.29 1.07Q110.50 1.30 110.95 1.21L110.95 1.21L110.95 1.21Q111.41 1.12 112.86 0.49L112.86 0.49L112.86 0.49Q114.31-0.14 114.77-0.25L114.77-0.25L114.77-0.25Q114.94-0.18 114.94-0.07L114.94-0.07L114.94-0.07Q114.94 0.46 113.10 1.40L113.10 1.40L113.10 1.40Q111.27 2.35 110.34 2.35L110.34 2.35L110.34 2.35Q109.41 2.35 109.20 2.03L109.20 2.03L109.20 2.03Q108.57 1.12 108.57-0.18L108.57-0.18L108.57-0.18Q108.57-3.19 111.79-8.82L111.79-8.82L111.79-8.82Q113.86-12.36 118.16-18.34L118.16-18.34L118.16-18.34Q114.80-15.61 109.06-9.98L109.06-9.98L109.06-9.98Q103.32-4.34 101.54-1.16L101.54-1.16L101.54-1.16Q100.63 0.49 99.33 0.49L99.33 0.49L99.33 0.49Q98.74 0.49 98.74 0.07L98.74 0.07L98.74 0.07Q98.74-0.07 99.45-1.19L99.45-1.19L99.45-1.19Q100.17-2.31 102.62-6.44L102.62-6.44L102.62-6.44Q108.64-16.91 108.64-19.04L108.64-19.04L108.64-19.04Q108.64-19.60 108.26-19.60L108.26-19.60L108.26-19.60Q107.70-19.60 106.61-18.66L106.61-18.66L106.61-18.66Q102.73-15.40 98.35-10.15L98.35-10.15L98.35-10.15Q93.98-4.90 91.77-1.44ZM118.51 0.46L118.51 0.46L118.51 0.46Q118.13 0.46 117.81 0.35L117.81 0.35L117.81 0.35Q115.57-0.28 115.57-2.17L115.57-2.17L115.57-2.17Q115.57-4.62 118.65-7.84L118.65-7.84L118.65-7.84Q121.73-11.06 124.18-11.06L124.18-11.06L124.18-11.06Q124.99-11.06 125.49-10.62L125.49-10.62L125.49-10.62Q126.00-10.19 126.00-9.56L126.00-9.56L126.00-9.56Q126.00-7.60 123.04-5.81L123.04-5.81L123.04-5.81Q120.09-4.03 118.23-4.03L118.23-4.03L118.23-4.03Q117.95-4.03 117.74-4.10L117.74-4.10L117.74-4.10Q117.22-3.15 117.22-2.10L117.22-2.10L117.22-2.10Q117.22-0.28 118.95-0.28L118.95-0.28L118.95-0.28Q120.68-0.28 123.45-2.63L123.45-2.63L123.45-2.63Q125.58-4.34 127.09-6.27L127.09-6.27L127.09-6.27Q127.40-6.69 127.63-6.69L127.63-6.69L127.63-6.69Q127.86-6.69 127.86-6.48L127.86-6.48L127.86-6.48Q127.86-6.27 127.58-5.88L127.58-5.88L127.58-5.88Q125.69-3.40 123.03-1.47L123.03-1.47L123.03-1.47Q120.37 0.46 118.51 0.46ZM125.13-9.63L125.13-9.63L125.13-9.63Q125.13-10.05 124.23-10.05L124.23-10.05L124.23-10.05Q123.34-10.05 121.70-8.68L121.70-8.68L121.70-8.68Q119.49-6.86 118.27-4.87L118.27-4.87L118.27-4.87Q118.48-4.80 118.72-4.80L118.72-4.80L118.72-4.80Q120.05-4.80 122.27-6.21L122.27-6.21L122.27-6.21Q124.50-7.63 125.06-9.31L125.06-9.31L125.06-9.31Q125.13-9.49 125.13-9.63ZM133.28-1.26L132.16-0.53L132.16-0.53Q131.15 0.07 129.66 0.07L129.66 0.07L129.66 0.07Q128.17 0.07 127.38-0.91L127.38-0.91L127.38-0.91Q126.60-1.89 126.04-4.03L126.04-4.03L126.04-4.03Q125.41-3.40 125.16-3.40L125.16-3.40L125.16-3.40Q124.99-3.40 124.99-3.64L124.99-3.64L124.99-3.64Q124.99-3.89 125.16-4.06L125.16-4.06L125.16-4.06Q126.32-5.50 129.08-8.19L129.08-8.19L133.49-12.32L133.49-12.32Q135.38-14.11 135.73-14.11L135.73-14.11L135.73-14.11Q136.85-14.11 136.85-13.27L136.85-13.27L136.85-13.27Q136.85-12.85 136.52-12.44L136.52-12.44L136.52-12.44Q136.19-12.04 136.03-11.81L136.03-11.81L136.03-11.81Q135.87-11.59 135.70-11.38L135.70-11.38L135.70-11.38Q135.07-10.29 134.42-6.90L134.42-6.90L134.42-6.90Q133.77-3.50 133.42-2.17L133.42-2.17L133.42-2.17Q136.33-2.21 139.41-5.95L139.41-5.95L139.41-5.95Q139.76-6.30 139.93-6.30L139.93-6.30L139.93-6.30Q140.11-6.30 140.11-6.07L140.11-6.07L140.11-6.07Q140.11-5.85 139.79-5.46L139.79-5.46L139.79-5.46Q137.76-3.08 136.01-2.14L136.01-2.14L136.01-2.14Q134.96-1.61 133.28-1.26L133.28-1.26ZM127.44-4.41L127.44-4.41L127.44-4.41Q127.44-3.22 128.22-2.47L128.22-2.47L128.22-2.47Q129.01-1.72 129.99-1.72L129.99-1.72L129.99-1.72Q130.97-1.72 131.50-2.10L131.50-2.10L131.50-2.10Q132.20-2.49 132.88-5.32L132.88-5.32L132.88-5.32Q133.56-8.16 133.70-10.33L133.70-10.33L133.84-11.52L133.84-11.52Q131.92-10.08 129.73-7.81L129.73-7.81L129.73-7.81Q127.54-5.53 127.47-4.80L127.47-4.80L127.47-4.80Q127.44-4.59 127.44-4.41ZM145.85-1.26L144.73-0.53L144.73-0.53Q143.71 0.07 142.22 0.07L142.22 0.07L142.22 0.07Q140.74 0.07 139.95-0.91L139.95-0.91L139.95-0.91Q139.16-1.89 138.60-4.03L138.60-4.03L138.60-4.03Q137.97-3.40 137.73-3.40L137.73-3.40L137.73-3.40Q137.55-3.40 137.55-3.64L137.55-3.64L137.55-3.64Q137.55-3.89 137.73-4.06L137.73-4.06L137.73-4.06Q138.88-5.50 141.65-8.19L141.65-8.19L146.06-12.32L146.06-12.32Q147.95-14.11 148.30-14.11L148.30-14.11L148.30-14.11Q149.42-14.11 149.42-13.27L149.42-13.27L149.42-13.27Q149.42-12.85 149.08-12.44L149.08-12.44L149.08-12.44Q148.75-12.04 148.59-11.81L148.59-11.81L148.59-11.81Q148.44-11.59 148.26-11.38L148.26-11.38L148.26-11.38Q147.63-10.29 146.98-6.90L146.98-6.90L146.98-6.90Q146.34-3.50 145.99-2.17L145.99-2.17L145.99-2.17Q148.89-2.21 151.97-5.95L151.97-5.95L151.97-5.95Q152.32-6.30 152.50-6.30L152.50-6.30L152.50-6.30Q152.67-6.30 152.67-6.07L152.67-6.07L152.67-6.07Q152.67-5.85 152.36-5.46L152.36-5.46L152.36-5.46Q150.33-3.08 148.58-2.14L148.58-2.14L148.58-2.14Q147.53-1.61 145.85-1.26L145.85-1.26ZM140.00-4.41L140.00-4.41L140.00-4.41Q140.00-3.22 140.79-2.47L140.79-2.47L140.79-2.47Q141.58-1.72 142.56-1.72L142.56-1.72L142.56-1.72Q143.54-1.72 144.06-2.10L144.06-2.10L144.06-2.10Q144.76-2.49 145.44-5.32L145.44-5.32L145.44-5.32Q146.13-8.16 146.27-10.33L146.27-10.33L146.41-11.52L146.41-11.52Q144.48-10.08 142.29-7.81L142.29-7.81L142.29-7.81Q140.11-5.53 140.04-4.80L140.04-4.80L140.04-4.80Q140.00-4.59 140.00-4.41ZM152.64 0.46L152.64 0.46L152.64 0.46Q152.25 0.46 151.94 0.35L151.94 0.35L151.94 0.35Q149.70-0.28 149.70-2.17L149.70-2.17L149.70-2.17Q149.70-4.62 152.78-7.84L152.78-7.84L152.78-7.84Q155.86-11.06 158.31-11.06L158.31-11.06L158.31-11.06Q159.11-11.06 159.62-10.62L159.62-10.62L159.62-10.62Q160.13-10.19 160.13-9.56L160.13-9.56L160.13-9.56Q160.13-7.60 157.17-5.81L157.17-5.81L157.17-5.81Q154.21-4.03 152.36-4.03L152.36-4.03L152.36-4.03Q152.08-4.03 151.87-4.10L151.87-4.10L151.87-4.10Q151.34-3.15 151.34-2.10L151.34-2.10L151.34-2.10Q151.34-0.28 153.07-0.28L153.07-0.28L153.07-0.28Q154.81-0.28 157.57-2.63L157.57-2.63L157.57-2.63Q159.71-4.34 161.21-6.27L161.21-6.27L161.21-6.27Q161.53-6.69 161.75-6.69L161.75-6.69L161.75-6.69Q161.98-6.69 161.98-6.48L161.98-6.48L161.98-6.48Q161.98-6.27 161.70-5.88L161.70-5.88L161.70-5.88Q159.81-3.40 157.15-1.47L157.15-1.47L157.15-1.47Q154.49 0.46 152.64 0.46ZM159.25-9.63L159.25-9.63L159.25-9.63Q159.25-10.05 158.36-10.05L158.36-10.05L158.36-10.05Q157.47-10.05 155.82-8.68L155.82-8.68L155.82-8.68Q153.62-6.86 152.39-4.87L152.39-4.87L152.39-4.87Q152.60-4.80 152.85-4.80L152.85-4.80L152.85-4.80Q154.18-4.80 156.40-6.21L156.40-6.21L156.40-6.21Q158.62-7.63 159.18-9.31L159.18-9.31L159.18-9.31Q159.25-9.49 159.25-9.63ZM165.48-11.06L165.48-11.06L165.48-11.06Q166.43-11.06 166.43-10.33L166.43-10.33L166.43-10.33Q166.43-10.12 166.32-9.91L166.32-9.91L166.32-9.91Q163.17-5.53 162.54-3.29L162.54-3.29L162.54-3.29Q170.70-11.45 172.45-11.45L172.45-11.45L172.45-11.45Q172.62-11.48 172.76-11.48L172.76-11.48L172.76-11.48Q173.74-11.48 173.74-10.61L173.74-10.61L173.74-10.61Q173.74-10.43 173.67-10.26L173.67-10.26L173.67-10.26Q173.60-10.08 172.27-8.37L172.27-8.37L172.27-8.37Q170.73-6.55 169.66-4.87L169.66-4.87L169.66-4.87Q168.60-3.19 168.60-2.07L168.60-2.07L168.60-2.07Q168.60-0.95 169.09-0.95L169.09-0.95L169.09-0.95Q170.63-0.95 174.44-5.18L174.44-5.18L174.44-5.18Q174.51-5.25 174.69-5.50L174.69-5.50L174.69-5.50Q175.21-6.13 175.32-6.13L175.32-6.13L175.32-6.13Q175.42-6.13 175.42-5.78L175.42-5.78L175.42-5.78Q175.42-5.43 174.93-4.87L174.93-4.87L174.93-4.87Q170.59 0.07 168.77 0.07L168.77 0.07L168.77 0.07Q167.06 0.07 167.06-1.82L167.06-1.82L167.06-1.82Q167.06-3.71 168.46-6.16L168.46-6.16L170.70-9.80L170.70-9.80Q168.32-8.05 166.46-5.97L166.46-5.97L166.46-5.97Q164.61-3.89 163.08-1.93L163.08-1.93L163.08-1.93Q161.56 0.04 161.32 0.04L161.32 0.04L161.32 0.04Q160.79 0.04 160.49-0.40L160.49-0.40L160.49-0.40Q160.20-0.84 160.20-1.49L160.20-1.49L160.20-1.49Q160.20-2.14 160.65-3.22L160.65-3.22L160.65-3.22Q161.11-4.31 161.81-5.85L161.81-5.85L159.71-3.64L159.71-3.64Q158.94-2.87 158.74-2.87L158.74-2.87L158.74-2.87Q158.55-2.87 158.55-3.10L158.55-3.10L158.55-3.10Q158.55-3.33 158.83-3.61L158.83-3.61L158.83-3.61Q160.13-4.90 161.07-6.09L161.07-6.09L161.07-6.09Q161.98-7.28 164.82-10.64L164.82-10.64L164.82-10.64Q165.13-11.06 165.48-11.06ZM185.64-10.68L185.64-10.68L186.13-10.78L186.13-10.78Q186.59-10.78 186.85-10.50L186.85-10.50L186.85-10.50Q187.11-10.22 187.11-10.06L187.11-10.06L187.11-10.06Q187.11-9.91 187.08-9.71L187.08-9.71L187.08-9.71Q187.04-9.52 186.06-7.95L186.06-7.95L186.06-7.95Q184.84-5.81 184.03-4.34L184.03-4.34L184.03-4.34Q181.20 0.95 179.69 2.91L179.69 2.91L179.69 2.91Q176.47 7.18 173.57 7.18L173.57 7.18L173.57 7.18Q172.55 7.18 171.80 6.32L171.80 6.32L171.80 6.32Q171.05 5.46 171.01 4.41L171.01 4.41L171.01 4.41Q171.12 3.99 171.33 3.99L171.33 3.99L171.33 3.99Q171.43 3.99 171.50 4.24L171.50 4.24L171.50 4.24Q171.68 5.15 172.17 5.64L172.17 5.64L172.17 5.64Q172.66 6.13 173.15 6.13L173.15 6.13L173.15 6.13Q175.14 6.13 177.42 3.50L177.42 3.50L177.42 3.50Q178.92 1.75 180.74-1.61L180.74-1.61L182.49-5.08L179.87-2.42L179.87-2.42Q177.35 0 176.42 0L176.42 0L176.42 0Q175.49 0 174.65-0.63L174.65-0.63L174.65-0.63Q173.71-1.33 173.71-2.49L173.71-2.49L173.71-2.49Q173.71-5.04 177.29-8.58L177.29-8.58L177.29-8.58Q180.88-12.11 183.82-12.11L183.82-12.11L183.82-12.11Q185.01-12.11 185.36-11.34L185.36-11.34L185.36-11.34Q185.47-11.06 185.54-10.87L185.54-10.87L185.54-10.87Q185.61-10.68 185.64-10.68ZM175.18-2.07L175.18-2.07L175.18-2.07Q175.18-0.81 176.05-0.81L176.05-0.81L176.05-0.81Q178.08-0.81 181.58-5.25L181.58-5.25L185.29-10.36L185.29-10.36Q185.08-10.85 184.42-10.85L184.42-10.85L184.42-10.85Q182.25-10.85 178.71-7.51L178.71-7.51L178.71-7.51Q175.18-4.17 175.18-2.07ZM188.69 0.46L188.69 0.46L188.69 0.46Q188.30 0.46 187.99 0.35L187.99 0.35L187.99 0.35Q185.75-0.28 185.75-2.17L185.75-2.17L185.75-2.17Q185.75-4.62 188.83-7.84L188.83-7.84L188.83-7.84Q191.91-11.06 194.36-11.06L194.36-11.06L194.36-11.06Q195.16-11.06 195.67-10.62L195.67-10.62L195.67-10.62Q196.18-10.19 196.18-9.56L196.18-9.56L196.18-9.56Q196.18-7.60 193.22-5.81L193.22-5.81L193.22-5.81Q190.26-4.03 188.41-4.03L188.41-4.03L188.41-4.03Q188.13-4.03 187.91-4.10L187.91-4.10L187.91-4.10Q187.39-3.15 187.39-2.10L187.39-2.10L187.39-2.10Q187.39-0.28 189.12-0.28L189.12-0.28L189.12-0.28Q190.86-0.28 193.62-2.63L193.62-2.63L193.62-2.63Q195.75-4.34 197.26-6.27L197.26-6.27L197.26-6.27Q197.58-6.69 197.80-6.69L197.80-6.69L197.80-6.69Q198.03-6.69 198.03-6.48L198.03-6.48L198.03-6.48Q198.03-6.27 197.75-5.88L197.75-5.88L197.75-5.88Q195.86-3.40 193.20-1.47L193.20-1.47L193.20-1.47Q190.54 0.46 188.69 0.46ZM195.30-9.63L195.30-9.63L195.30-9.63Q195.30-10.05 194.41-10.05L194.41-10.05L194.41-10.05Q193.52-10.05 191.87-8.68L191.87-8.68L191.87-8.68Q189.66-6.86 188.44-4.87L188.44-4.87L188.44-4.87Q188.65-4.80 188.90-4.80L188.90-4.80L188.90-4.80Q190.22-4.80 192.45-6.21L192.45-6.21L192.45-6.21Q194.67-7.63 195.23-9.31L195.23-9.31L195.23-9.31Q195.30-9.49 195.30-9.63ZM203.04 0.18L203.04 0.18L203.04 0.18Q200.41 0.18 200.41-2.73L200.41-2.73L200.41-2.73Q200.41-4.20 201.18-5.95L201.18-5.95L201.18-5.95Q201.95-7.70 202.86-8.89L202.86-8.89L202.86-8.89Q202.69-8.86 202.41-8.86L202.41-8.86L202.41-8.86Q201.56-8.86 201.01-10.05L201.01-10.05L198.42-6.69L198.42-6.69Q196.25-3.99 195.90-3.99L195.90-3.99L195.90-3.99Q195.72-3.99 195.72-4.13L195.72-4.13L195.72-4.13Q195.72-4.48 196.31-5.15L196.31-5.15L196.31-5.15Q199.36-8.68 200.62-11.13L200.62-11.13L200.62-11.13Q201.43-14.18 202.65-14.18L202.65-14.18L202.65-14.18Q203.46-14.18 203.46-13.48L203.46-13.48L203.46-13.48Q203.46-12.78 202.58-11.69L202.58-11.69L201.74-10.57L201.74-10.57Q201.74-9.84 202.83-9.84L202.83-9.84L202.83-9.84Q203.46-9.84 204.23-10.29L204.23-10.29L205.14-10.85L205.14-10.85Q205.21-10.89 205.49-10.89L205.49-10.89L205.49-10.89Q205.77-10.89 206.08-10.54L206.08-10.54L206.08-10.54Q206.40-10.19 206.29-9.91L206.29-9.91L203.88-6.86L203.88-6.86Q201.64-3.99 201.64-2.33L201.64-2.33L201.64-2.33Q201.64-0.67 203.18-0.67L203.18-0.67L203.18-0.67Q204.79-0.67 207.13-2.38L207.13-2.38L207.13-2.38Q208.53-3.40 209.69-4.66L209.69-4.66L209.69-4.66Q210.77-5.92 210.88-5.92L210.88-5.92L210.88-5.92Q211.12-5.92 211.12-5.65L211.12-5.65L211.12-5.65Q211.12-5.39 210.81-5.04L210.81-5.04L209.69-3.78L209.69-3.78Q208.74-2.80 207.59-1.89L207.59-1.89L207.59-1.89Q204.82 0.18 203.04 0.18Z" fill="#eb6c6c"></path></g></g><style>text {
  font-size: 64px;
  font-family: Arial Black;
  dominant-baseline: central;
  text-anchor: middle;
}</style></svg>